<?xml version="1.0" standalone="no"?>
<!DOCTYPE svg PUBLIC "-//W3C//DTD SVG 20010904//EN"
 "http://www.w3.org/TR/2001/REC-SVG-20010904/DTD/svg10.dtd">
<svg version="1.0" xmlns="http://www.w3.org/2000/svg"
 width="463.000000pt" height="445.000000pt" viewBox="0 0 463.000000 445.000000"
 preserveAspectRatio="xMidYMid meet">
<metadata>
Created by potrace 1.15, written by Peter Selinger 2001-2017
</metadata>
<g transform="translate(0.000000,445.000000) scale(0.100000,-0.100000)"
fill="#000000" stroke="none">
<path d="M0 4015 c0 -297 3 -435 11 -435 5 0 17 -17 26 -37 24 -56 18 -193
-13 -307 -21 -80 -24 -112 -24 -264 0 -147 3 -178 17 -203 24 -40 47 -33 53
15 9 68 36 57 59 -24 14 -47 27 -70 42 -70 5 0 9 7 9 15 0 9 6 12 15 9 10 -4
15 -20 15 -46 0 -22 -4 -37 -9 -33 -11 6 -20 -6 -26 -34 -2 -10 -18 -49 -35
-86 -27 -59 -32 -77 -28 -127 2 -32 1 -58 -4 -58 -4 0 -8 9 -8 20 0 33 -27 23
-45 -17 -9 -21 -23 -50 -30 -66 -12 -24 -11 -28 6 -38 24 -13 35 -6 55 34 18
34 40 52 64 52 11 0 17 19 23 74 5 49 14 79 24 86 9 7 13 17 9 24 -8 13 1 51
13 51 4 0 13 -18 20 -40 10 -35 16 -40 41 -40 15 0 35 -3 44 -6 10 -4 21 7 37
38 18 36 21 59 21 140 -1 76 2 99 14 109 24 19 51 -22 59 -91 10 -82 31 -98
75 -60 13 12 30 18 38 15 7 -3 18 -5 23 -5 5 0 9 -7 9 -15 0 -8 5 -15 10 -15
6 0 16 -11 22 -25 10 -22 18 -25 59 -25 32 0 49 -5 53 -15 9 -24 22 -18 70 31
26 26 55 46 69 47 14 1 37 14 52 30 36 36 61 34 81 -4 13 -26 14 -39 4 -77 -6
-25 -11 -85 -11 -134 -1 -66 -4 -91 -15 -95 -7 -2 -16 -13 -19 -24 -9 -28 -64
-64 -77 -51 -17 17 -45 -4 -53 -38 -4 -17 -18 -41 -32 -54 l-26 -24 10 -126 9
-126 51 -49 50 -50 26 31 c22 24 32 29 53 24 19 -5 31 0 54 22 29 29 87 46
116 35 36 -14 44 -88 14 -126 -19 -24 -27 -77 -14 -90 8 -7 41 8 69 33 11 9
29 20 40 24 11 4 0 -11 -25 -33 -66 -59 -64 -58 -96 -74 -48 -25 -134 -131
-102 -126 7 1 23 -2 35 -7 23 -9 23 -10 5 -44 -27 -49 -46 -58 -72 -35 -20 18
-21 18 -45 -5 -44 -42 -187 -314 -220 -420 -4 -14 -24 -59 -43 -100 -35 -74
-57 -158 -67 -255 -3 -27 -12 -81 -20 -120 -66 -325 -93 -449 -104 -477 l-11
-28 1869 0 c1486 0 1870 3 1874 13 4 9 6 9 6 -1 1 -9 45 -12 191 -12 l190 1 0
2225 0 2224 -2315 0 -2315 0 0 -435z m1255 193 c9 -38 -1 -116 -19 -143 -9
-14 -16 -31 -15 -38 5 -42 -36 -49 -72 -11 -22 23 -22 27 -8 37 9 7 19 30 22
52 5 40 15 89 22 113 3 6 18 12 34 12 23 0 32 -5 36 -22z m712 0 c9 -16 10
-18 12 -93 2 -73 12 -95 35 -76 9 8 17 10 17 5 2 -12 7 -77 12 -147 2 -41 8
-61 22 -71 24 -17 13 -46 -18 -46 -14 0 -54 -20 -91 -44 -36 -25 -66 -41 -66
-35 0 5 -8 9 -18 9 -31 0 -72 24 -72 43 0 10 -7 20 -15 23 -27 11 -29 69 -5
119 12 25 28 45 36 45 19 0 40 54 52 133 13 80 45 147 72 147 10 0 22 -6 27
-12z m-1119 -281 c6 -5 12 -24 12 -42 0 -41 -20 -55 -79 -55 -35 0 -41 -3 -47
-25 -8 -34 -38 -49 -65 -35 -18 10 -20 17 -14 53 7 42 21 72 48 98 15 15 123
19 145 6z m1602 -437 c16 -9 17 -13 6 -35 -7 -14 -25 -34 -40 -46 -41 -32 -34
-62 24 -106 28 -21 50 -45 50 -55 0 -16 -3 -17 -21 -8 -17 9 -26 7 -52 -13
-48 -36 -96 -54 -159 -61 -69 -7 -158 -55 -158 -85 0 -12 -61 4 -69 18 -3 5
-28 16 -56 24 l-50 15 3 68 c1 38 7 71 13 75 5 3 8 18 5 32 -4 21 3 33 34 61
34 31 69 50 185 101 18 8 62 13 108 13 42 -1 80 1 84 5 10 10 72 8 93 -3z
m286 -215 c4 -10 15 -12 37 -8 27 5 30 4 20 -8 -6 -8 -14 -32 -17 -54 -4 -32
-30 -111 -41 -123 -3 -3 -134 24 -157 33 -12 5 -15 15 -11 38 9 57 41 80 96
67 21 -4 37 -4 37 1 0 5 7 9 15 9 8 0 15 7 15 15 0 19 -9 19 -32 -2 -22 -20
-24 -6 -2 25 18 25 32 28 40 7z m-1456 -155 c11 -6 22 -26 26 -45 13 -73 -54
-194 -94 -169 -32 21 -24 144 14 202 16 24 26 27 54 12z m818 -96 c7 -14 17
-22 22 -19 6 4 10 -11 11 -37 0 -25 11 -65 27 -98 23 -47 33 -56 64 -64 36 -9
98 6 98 24 0 5 16 17 35 29 26 15 35 17 35 7 0 -8 10 -14 23 -15 12 0 39 -3
60 -7 32 -5 37 -4 37 12 0 11 11 48 23 84 l24 65 53 3 c28 2 71 -3 94 -11 23
-8 56 -12 73 -10 21 4 38 0 48 -11 9 -9 21 -13 26 -10 6 3 36 8 68 10 52 4 60
2 84 -23 52 -56 54 -161 3 -241 -45 -70 -80 -95 -153 -107 -79 -13 -103 -39
-30 -34 l46 4 -7 -45 c-4 -25 -7 -121 -7 -215 0 -178 11 -247 47 -294 26 -34
22 -79 -12 -136 -127 -216 -407 -301 -690 -209 -43 14 -46 18 -57 62 -6 27 -7
54 -2 63 4 9 4 20 -1 25 -13 13 -16 77 -5 94 5 8 8 24 6 35 l-3 20 23 -20 c13
-11 43 -38 67 -60 24 -22 47 -40 53 -39 5 1 18 2 30 3 18 1 20 5 15 27 -6 22
-4 25 14 19 15 -5 20 -2 20 13 0 19 -45 72 -61 72 -12 0 -11 44 1 56 7 7 7 21
-1 42 -9 25 -7 41 7 78 15 39 15 47 3 55 -12 8 -11 11 4 23 9 7 17 15 17 17 0
2 -24 4 -52 4 -95 0 -218 21 -218 36 0 5 -7 9 -15 9 -33 0 -75 30 -75 54 0 49
12 84 31 89 25 7 25 47 -1 80 l-20 25 50 11 c28 6 95 12 148 12 85 2 90 3 42
9 -30 3 -82 16 -115 28 -32 12 -59 22 -60 22 0 0 0 14 -1 30 -1 19 -10 37 -25
49 -14 10 -31 35 -38 54 -8 20 -18 34 -23 31 -4 -3 -8 1 -8 10 0 8 -5 16 -12
18 -7 3 4 27 28 64 22 32 50 80 62 107 25 54 52 62 70 21z m-454 -530 c5 -13
15 -15 46 -10 32 5 41 3 54 -15 9 -14 28 -23 52 -25 21 -2 47 -13 58 -24 18
-18 20 -31 18 -121 -3 -83 0 -105 14 -120 15 -17 14 -20 -12 -58 -16 -22 -40
-45 -54 -51 -24 -10 -84 -61 -92 -77 -4 -11 -86 -51 -125 -62 -25 -7 -31 -6
-26 5 5 13 -36 59 -70 79 -20 11 -22 49 -11 168 5 60 10 71 40 101 25 24 35
44 38 72 4 43 24 132 32 146 9 14 31 9 38 -8z m-293 -251 c8 -14 13 -47 12
-73 -2 -43 0 -47 17 -43 34 9 25 -34 -12 -57 -35 -22 -95 -20 -111 3 -9 14 0
89 12 97 15 9 31 48 31 74 0 35 32 35 51 -1z m17 -294 c12 -11 28 -40 34 -65
11 -41 15 -44 36 -39 15 4 31 0 42 -10 15 -14 20 -14 32 -2 19 19 55 30 105
32 24 0 48 6 55 13 16 16 58 15 58 0 0 -15 -107 -51 -160 -54 -19 -2 -54 -8
-78 -14 -23 -5 -53 -8 -66 -4 -13 3 -27 1 -30 -5 -4 -5 -13 -8 -22 -4 -9 3
-14 0 -12 -7 2 -7 -3 -15 -11 -18 -9 -3 -11 0 -6 8 4 7 -4 23 -20 40 -18 19
-29 43 -32 73 -5 38 -2 47 18 61 30 20 31 20 57 -5z m508 -452 c21 -12 17 -29
-5 -22 -11 3 -22 1 -26 -5 -3 -5 1 -10 10 -10 24 0 34 -40 24 -94 -11 -59 -15
-66 -42 -66 -20 0 -20 -1 -2 -14 17 -12 17 -13 -7 -19 -21 -6 -24 -11 -20 -38
3 -19 1 -29 -5 -26 -6 4 -10 -7 -9 -26 1 -20 6 -31 14 -30 15 4 15 -6 1 -63
-11 -41 -13 -44 -40 -39 -16 3 -29 1 -29 -5 0 -5 5 -10 11 -10 5 0 7 -5 3 -11
-4 -7 2 -6 17 1 l24 13 -20 -23 c-11 -12 -18 -32 -17 -46 2 -13 -1 -24 -6 -24
-8 0 -31 -74 -35 -115 -1 -11 -8 -24 -15 -28 -7 -5 -10 -12 -7 -17 6 -9 -13
-25 -21 -17 -3 2 3 26 12 52 8 26 14 58 11 71 -2 13 0 24 4 24 5 0 9 -6 9 -12
0 -9 4 -8 10 2 13 20 13 87 -1 92 -7 2 -7 12 1 32 6 16 7 33 3 37 -8 8 -72 13
-103 8 -8 -1 -45 -1 -81 -1 -60 2 -67 4 -74 25 -4 13 -8 17 -12 9 -2 -6 -9
-10 -14 -6 -5 3 -12 -2 -15 -10 -3 -9 -18 -16 -32 -16 -25 0 -25 0 -6 18 20
19 54 36 66 34 4 -1 5 4 2 12 -8 20 35 28 171 31 82 2 119 6 118 14 -2 6 2 11
8 11 13 0 39 62 39 95 0 14 5 25 10 25 6 0 10 4 10 9 0 14 -58 24 -114 22 -41
-2 -48 0 -43 13 4 9 2 16 -3 16 -6 0 -10 -6 -10 -14 0 -7 -10 -16 -22 -20 -50
-13 -78 -6 -117 29 -21 19 -44 35 -52 35 -9 0 -10 3 -3 10 7 7 19 8 38 0 23
-8 28 -7 35 11 7 21 8 21 40 -10 25 -24 31 -27 26 -12 -3 10 -1 22 5 26 5 3
10 -1 10 -9 0 -9 7 -16 15 -16 8 0 15 -4 15 -10 0 -5 4 -10 9 -10 4 0 6 11 4
24 -5 24 -4 24 37 14 29 -8 44 -8 49 -1 3 6 23 9 44 7 32 -3 37 0 37 17 0 11
4 18 9 14 6 -3 13 11 17 32 9 48 17 63 22 38 2 -11 10 -24 18 -28z m-463 -82
c-1 -5 -10 -12 -20 -15 -10 -3 -30 -13 -45 -23 -15 -11 -46 -21 -69 -24 -41
-6 -42 -5 -37 20 5 28 1 31 -27 21 -13 -6 -14 -9 -3 -16 9 -7 5 -8 -14 -5 -19
3 -28 0 -28 -9 0 -8 6 -11 15 -8 8 4 15 1 15 -5 0 -14 -45 -14 -70 -1 -11 6
-17 17 -14 25 4 8 2 15 -3 15 -5 0 -14 -14 -21 -32 -6 -17 -14 -29 -18 -26 -3
4 -2 13 2 20 5 7 8 22 9 33 0 14 6 19 18 17 10 -2 25 2 32 8 9 7 30 9 58 5 25
-4 53 -3 62 2 22 13 161 11 158 -2z m-528 -351 c-5 -30 -4 -36 9 -31 8 3 20
-2 28 -11 9 -11 10 -14 1 -8 -15 8 -15 6 -4 -51 7 -36 6 -43 -8 -44 -13 -1
-13 -2 2 -6 21 -5 22 -34 4 -119 -8 -37 -10 -71 -5 -84 5 -13 4 -28 -1 -34 -5
-6 -8 -26 -6 -44 1 -18 -2 -35 -7 -38 -10 -6 -11 -54 0 -54 4 0 7 -14 7 -31 0
-30 0 -30 -17 -9 -10 12 -22 19 -28 15 -16 -10 -12 -25 5 -19 10 4 15 0 15
-10 0 -9 -7 -19 -15 -22 -25 -10 -17 -27 10 -20 14 4 25 2 25 -4 0 -12 -45
-24 -60 -15 -6 4 -9 13 -6 21 3 8 1 14 -4 14 -5 0 -5 13 1 32 5 17 6 34 4 37
-3 2 -5 -1 -5 -8 0 -7 -4 -9 -10 -6 -5 3 -10 12 -10 19 0 18 42 29 52 13 5 -8
8 -5 8 9 0 12 -7 27 -15 34 -19 16 -19 47 -1 57 18 10 32 63 17 63 -6 0 -11
-6 -11 -14 0 -8 -4 -18 -10 -21 -6 -4 -9 6 -7 25 2 18 10 36 18 41 11 7 12 9
0 9 -10 0 -11 7 -6 28 4 15 9 42 11 61 2 19 8 39 13 44 7 7 7 17 0 29 -8 15
-5 20 13 28 l23 11 -22 -5 c-13 -2 -23 0 -23 5 0 5 6 9 14 9 10 0 14 9 12 28
-1 19 -7 27 -20 25 -15 -1 -17 4 -11 35 7 39 13 52 22 52 3 0 2 -16 -2 -36z"/>
<path d="M0 662 l0 -662 205 0 c113 0 205 3 205 6 0 7 -43 87 -50 94 -23 21
-88 124 -123 192 -33 66 -49 86 -77 100 -71 35 -71 31 -15 209 46 144 48 230
10 359 -15 52 -31 125 -36 163 -10 69 -42 147 -62 147 -6 0 -22 12 -34 27
l-23 26 0 -661z"/>
</g>
</svg>
